<svg width="86" height="85" viewBox="0 0 86 85" fill="none" xmlns="http://www.w3.org/2000/svg">
<path d="M42.8001 1.84435C45.1596 -0.582003 49.4802 -0.62153 51.8792 1.76833C56.7805 6.63928 61.5603 11.6318 66.3643 16.597C66.2609 17.0866 66.2427 17.6673 65.8535 18.0352C65.1238 18.2906 64.3272 18.0322 63.8528 17.4453C59.4015 12.9727 55.087 8.36629 50.6295 3.89974C49.8694 3.2217 48.9937 2.54062 47.9417 2.46461C46.7985 2.37035 45.6218 2.72306 44.7279 3.44063C34.2258 13.9092 23.7755 24.4386 13.2066 34.8463C11.7836 36.2146 10.7164 38.0541 10.7529 40.0821C10.5948 41.42 11.2333 42.8338 10.6039 44.1017C10.0292 45.023 8.36909 44.5913 8.40253 43.4602C8.26571 41.0734 8.04376 38.5163 9.13227 36.2967C9.862 34.5149 11.3032 33.1953 12.6562 31.8879C20.7806 23.8852 28.7893 15.77 36.8741 7.72778C38.89 5.8092 40.8724 3.85718 42.8001 1.84435Z" fill="#2D2829"/>
<path d="M74.0387 6.62104C73.7954 5.83659 74.4157 4.89401 75.2792 4.98219C78.3228 4.94874 81.3664 4.94875 84.41 4.95787C85.1518 4.85753 85.8238 5.58422 85.7113 6.31699C85.6809 9.57645 85.7447 12.8359 85.69 16.0954C85.4498 17.1717 84.1758 17.3055 83.3914 16.7217C82.8258 14.2862 83.291 11.7322 83.1056 9.24806C77.9488 14.8214 72.5427 20.1575 67.2887 25.6427C60.5721 32.5325 53.9194 39.4832 47.3245 46.4886C46.8806 47.0967 46.0079 47.4555 45.4029 46.8413C40.459 42.0859 35.3478 37.4947 30.5499 32.5933C25.9222 37.1359 21.4313 41.8183 16.8066 46.3639C12.1272 50.8092 7.76102 55.5707 3.08772 60.0251C2.40664 60.6879 1.58264 62.0014 0.497173 61.2443C-0.539651 60.618 0.263052 59.347 0.935011 58.7693C9.97757 49.669 19.1265 40.672 28.1083 31.5109C28.7955 30.8602 29.358 30.018 30.258 29.644C31.0485 29.4403 31.5319 30.2308 32.0671 30.6595C36.0776 34.6791 40.2097 38.5741 44.4269 42.3778C45.0228 42.8795 45.5458 43.5575 46.3515 43.7247C52.4204 37.4217 58.4894 31.1126 64.616 24.8643C67.6961 21.3464 71.1167 18.1568 74.3731 14.8123C76.6839 12.3494 79.0495 9.93219 81.3542 7.46936C79.4204 7.43591 77.4866 7.51192 75.5559 7.48151C74.9417 7.49976 74.3002 7.19571 74.0387 6.62104Z" fill="#2D2829"/>
<path d="M72.7434 25.3477C73.1721 25.2109 73.6099 25.0163 74.0782 25.1166C74.7288 25.4572 75.1941 26.0501 75.7049 26.567C78.0734 29.1666 80.6822 31.5383 83.066 34.1227C84.3734 35.5822 85.1518 37.5008 85.1974 39.4619C85.2096 51.8186 85.2217 64.1784 85.1761 76.5352C85.0788 78.4902 84.1819 80.3146 82.9869 81.8318C81.2295 84.024 78.344 85.1733 75.562 84.9787C55.9079 85.0092 36.2569 84.9636 16.6029 84.9301C12.857 84.772 9.64005 81.8652 8.55762 78.3656C8.16235 76.9882 8.24749 75.544 8.23533 74.1301C8.24141 70.074 8.25357 66.021 8.25053 61.968C8.20796 61.4876 8.38432 61.0528 8.60324 60.6423C9.15358 60.4781 9.73432 60.4568 10.2968 60.6088C10.5157 61.0284 10.686 61.4754 10.6526 61.968C10.6434 65.9176 10.6617 69.8703 10.686 73.82C10.6982 75.322 10.5887 76.8909 11.1938 78.3078C12.0694 80.6399 14.3559 82.4703 16.9009 82.4673C23.9215 82.4612 30.9451 82.4703 37.9657 82.4734C37.9292 74.723 37.9779 66.9727 37.9444 59.2223C37.9748 58.6507 37.8927 57.994 38.3093 57.5349C38.7714 56.9176 39.6076 56.945 40.3039 56.948C44.7583 56.9724 49.2127 56.9176 53.667 56.9602C54.6096 56.8203 55.312 57.7295 55.2907 58.6051C55.3029 66.5683 55.2238 74.5315 55.3302 82.4946C62.3843 82.4886 69.4383 82.4338 76.4924 82.5037C78.9035 82.5159 80.9984 80.8071 82.0718 78.7396C82.7984 77.3257 82.6798 75.6808 82.6829 74.1392C82.6829 63.1842 82.6738 52.2291 82.7103 41.2741C82.7802 39.3889 82.619 37.3335 81.3359 35.8376C78.6663 32.7514 75.4859 30.1487 72.7677 27.1112C72.2204 26.6126 72.3785 25.892 72.7434 25.3477ZM40.5137 59.6024C40.4893 67.219 40.5258 74.8355 40.5076 82.4521C44.5728 82.4673 48.6349 82.4521 52.7001 82.4703C52.688 74.8021 52.7883 67.1278 52.6758 59.4595C51.1951 59.5568 49.6687 59.2862 48.2214 59.6115C48.0725 59.5751 47.7775 59.5082 47.6285 59.4717C45.263 59.7119 42.8853 59.5477 40.5137 59.6024Z" fill="#2D2829"/>
<path d="M44 71L41.75 72.7321L41.75 69.2679L44 71Z" fill="#D9D9D9"/>
</svg>
