<svg width="77" height="85" viewBox="0 0 77 85" fill="none" xmlns="http://www.w3.org/2000/svg">
<path d="M36 71L33.75 72.7321L33.75 69.2679L36 71Z" fill="#D9D9D9"/>
<path d="M32.319 6.93999C31.9791 3.22893 35.5084 -0.272248 39.1955 0.0167284C40.986 0.0623562 42.7097 0.87453 43.9508 2.15515C46.7306 5.14225 49.6711 7.96813 52.5328 10.8761C59.2181 17.8754 66.1098 24.6709 72.8528 31.6155C74.1243 32.9843 75.5324 34.3227 76.2486 36.0901C76.807 37.4406 77.0254 38.9099 76.9921 40.3669C77.0376 51.932 76.8676 63.5002 76.9769 75.0653C76.9799 76.063 77.0042 77.079 76.7918 78.0615C76.0028 81.7209 72.6525 84.7506 68.8987 84.9848C48.8761 84.9483 28.8565 85 8.83389 85C6.62467 84.997 4.43669 84.13 2.84046 82.5969C0.931667 80.8388 -0.00604002 78.2289 2.92722e-05 75.6615C0.182108 63.5975 0.0273412 51.5275 0.0819649 39.4604C0.127485 36.9327 1.37776 34.5661 3.14696 32.817C5.87207 30.0976 8.5547 27.3295 11.2889 24.6162C16.6754 19.585 21.7372 14.207 27.151 9.21225C28.2981 8.32403 29.6849 10.283 28.6653 11.2047C24.9327 14.9948 20.9968 18.5903 17.255 22.3743C13.665 25.6626 10.3634 29.2429 6.84923 32.6071C5.67179 33.757 4.42151 34.8703 3.49291 36.2391C2.84956 37.2916 2.5461 38.5327 2.5552 39.7616C2.48541 51.9107 2.54306 64.0599 2.5552 76.2091C2.52182 79.4273 5.29549 82.4327 8.52739 82.5179C15.6527 82.4905 22.7811 82.5057 29.9065 82.5148C29.773 74.5482 29.9732 66.5785 29.8943 58.6119C29.867 57.7146 30.6925 56.8933 31.5968 56.9967C36.258 56.9906 40.9192 56.9937 45.5774 56.9998C46.5667 57.0058 47.2282 58.0066 47.1524 58.9344C47.1615 66.7854 47.122 74.6364 47.1433 82.4874C54.2959 82.5027 61.4516 82.4874 68.6073 82.4844C71.9151 82.3719 74.6159 79.2448 74.5734 75.99C74.5249 64.2181 74.5826 52.4491 74.5674 40.6772C74.5431 39.6217 74.625 38.5266 74.2275 37.5258C73.6175 35.8558 72.2944 34.6148 71.0897 33.3706C62.884 25.0664 54.6965 16.7469 46.4787 8.45483C44.9887 6.92477 43.5108 5.38256 42.0451 3.82817C41.25 2.93386 40.0543 2.48975 38.8739 2.48671C36.5038 2.56884 34.3795 4.84111 34.7801 7.2685C35.1928 8.91415 35.9303 10.4625 36.6464 11.9955C38.8374 11.6731 41.1377 11.8647 43.0526 13.0663C45.4287 14.4929 47.0371 17.2062 47.0431 19.9926C47.292 24.1508 43.7596 27.9318 39.7084 28.4003C39.6689 32.0718 39.7296 35.7433 39.6416 39.4118C41.2136 39.5456 42.913 39.0467 44.3909 39.7403C44.5365 40.4064 44.7641 41.3099 44.051 41.7479C43.3894 41.9183 42.6975 41.8027 42.0238 41.8118C41.9874 42.5388 41.948 43.2749 42.0299 44.0019C42.7855 44.2787 43.8689 43.8346 44.3666 44.6468C44.8643 45.2795 44.5335 46.4263 43.7172 46.5875C42.4578 46.6757 41.1923 46.5327 39.9299 46.554C39.7387 47.2476 39.7569 48.0932 39.1561 48.5951C38.5492 48.951 37.7966 48.7685 37.3019 48.3061C37.0622 41.608 37.396 34.8916 37.1684 28.1873C35.3901 27.6276 33.7028 26.6512 32.5345 25.1698C30.4193 22.5051 30.2676 18.4929 32.1248 15.6518C32.6589 14.6906 33.6118 14.1035 34.3371 13.3218C33.6725 11.1986 32.4738 9.20617 32.319 6.93999ZM40.9496 14.9309C41.1498 16.464 40.2516 18.2222 38.5704 18.3104C37.0045 18.4352 36.2246 16.823 35.4113 15.7705C33.7726 16.8686 33.3296 19.0983 33.4904 20.9538C33.7241 24.0839 37.0804 26.4808 40.112 25.766C42.9039 25.2094 44.9098 22.2314 44.4637 19.4268C44.2907 17.3796 42.7764 15.7188 40.9496 14.9309ZM32.3949 59.6127C32.4101 67.2417 32.3797 74.8676 32.3585 82.4966C36.434 82.4357 40.5095 82.4874 44.5851 82.4844C44.5911 74.8068 44.6002 67.1291 44.5729 59.4545C40.5277 59.777 36.4552 59.5306 32.3949 59.6127Z" fill="#2D2829"/>
</svg>
