<svg width="87" height="85" viewBox="0 0 87 85" fill="none" xmlns="http://www.w3.org/2000/svg">
<path d="M36.4188 0.287502C38.6147 -0.415065 41.136 0.205385 42.8179 1.76259C47.1367 5.95974 51.2122 10.3972 55.5128 14.6095C61.5378 20.7714 67.6571 26.8421 73.6122 33.0739C74.8805 34.4182 75.799 36.1427 76.1092 37.9737C76.3343 39.2754 74.4425 39.8837 73.7126 38.9013C73.4145 37.8611 73.305 36.7297 72.6207 35.8477C71.2004 33.9316 69.3999 32.347 67.7788 30.6104C63.6607 26.5258 59.7099 22.283 55.6071 18.1832C51.7597 14.421 48.1221 10.4519 44.293 6.66839C42.8879 5.33929 41.7412 3.65739 39.9772 2.7693C38.4291 2.05761 36.5648 2.59593 35.3847 3.75471C25.713 13.5481 15.9865 23.2897 6.31485 33.0861C4.97967 34.4152 3.4833 35.7139 2.82331 37.5327C2.41576 38.5394 2.47355 39.6373 2.47051 40.7018C2.52221 52.5633 2.38535 64.4279 2.53437 76.2894C2.54046 79.4555 5.23515 82.4452 8.45601 82.5C15.7402 82.4665 23.0274 82.5061 30.3146 82.5121C30.2812 74.5467 30.2782 66.5812 30.3025 58.6157C30.2629 57.752 30.9503 56.8943 31.8536 56.946C36.5313 56.946 41.209 56.9277 45.8867 56.9582C46.7778 56.9217 47.7937 57.6699 47.6416 58.637C47.5686 66.5812 47.6173 74.5284 47.5838 82.4756C54.4057 82.4483 61.2245 82.4848 68.0464 82.4756C71.395 82.2992 74.2448 79.2669 74.1506 75.894C69.6827 75.8514 65.2179 75.9366 60.7531 75.8971C58.758 75.8727 56.559 74.4737 56.4465 72.3386C56.4465 64.2271 56.4586 56.1157 56.4282 48.0042C56.4647 46.958 56.4891 45.8266 57.0943 44.9294C58.0037 43.5151 59.6734 42.5662 61.3645 42.6118C68.3658 42.5723 75.3702 42.6514 82.3745 42.6301C84.4366 42.5723 86.4196 44.3546 86.3162 46.4744C86.3162 55.0938 86.2676 63.7192 86.2676 72.3416C86.3497 74.2547 84.5278 75.9427 82.6604 75.9001C80.6835 75.9092 78.7066 75.9031 76.7297 75.8849C76.5229 78.0656 75.8689 80.2706 74.3604 81.916C72.8002 83.7165 70.5039 84.9848 68.089 84.9818C48.2103 84.9422 28.3316 84.9878 8.45601 85C4.7394 84.8996 1.56721 82.0255 0.405385 78.61C-0.114697 77.0771 0.0191263 75.4408 0.0069606 73.8502C0.0404162 62.9041 0.0160871 51.955 0.0282527 41.006C-0.0325756 39.1112 0.128613 37.1403 1.09578 35.4645C2.41271 33.1226 4.55692 31.4225 6.41522 29.5368C14.8856 20.9661 23.3255 12.371 31.8019 3.80642C33.201 2.48036 34.5057 0.871453 36.4188 0.287502ZM59.0439 47.3656C58.9283 51.0213 59.0438 54.6802 58.9739 58.339C58.8644 60.2642 58.8826 62.1955 58.9343 64.1237C58.8553 66.6572 58.9131 69.1938 58.8918 71.7273C58.7823 72.6458 59.5822 73.4365 60.4885 73.3818C67.87 73.4122 75.2546 73.4183 82.6361 73.397C83.3812 73.4548 83.9165 72.7522 83.7918 72.0405C83.7493 63.6097 83.807 55.1789 83.7614 46.7481C83.8557 45.9482 83.2565 45.0145 82.3837 45.1088C75.3945 45.1027 68.4084 45.0997 61.4222 45.1331C60.2239 45.1423 58.9617 46.076 59.0439 47.3656ZM32.8603 82.5C36.9297 82.4665 41.0022 82.4787 45.0746 82.4787C45.0868 74.8782 44.9956 67.2777 45.0898 59.6772C44.7553 59.5342 44.4055 59.4643 44.0466 59.4734C40.3361 59.4947 36.6286 59.4673 32.9181 59.4673C32.8147 67.1439 32.8512 74.8234 32.8603 82.5Z" fill="#2D2829"/>
<path d="M63.025 52.9891C62.435 52.2379 63.2227 51.0213 64.1321 51.0852C68.9953 51.0882 73.8616 51.0943 78.7279 51.1126C79.3179 51.0152 79.6859 51.5231 80.0874 51.8607C80.0174 52.3443 80.1239 52.9192 79.7224 53.2902C79.1445 53.6308 78.4481 53.6096 77.8033 53.6339C73.451 53.6613 69.1018 53.6521 64.7526 53.646C64.1382 53.6278 63.39 53.5426 63.025 52.9891Z" fill="#2D2829"/>
<path d="M36 71L33.75 72.7321L33.75 69.2679L36 71Z" fill="#D9D9D9"/>
<path d="M63.6211 59.075C63.9861 58.9351 64.3632 58.8803 64.7556 58.9077C69.4759 59.1024 74.2053 58.9138 78.9255 59.0476C79.9566 59.0598 80.133 60.3919 79.6737 61.0945C79.254 61.5233 78.6244 61.429 78.0892 61.4442C73.4206 61.4077 68.752 61.4564 64.0865 61.4017C62.7878 61.4777 62.1734 59.3913 63.6211 59.075Z" fill="#2D2829"/>
</svg>
